<svg xmlns="http://www.w3.org/2000/svg" version="1.1" xmlns:xlink="http://www.w3.org/1999/xlink" width="1000" height="1000"><g clip-path="url(#SvgjsClipPath1455)"><rect width="1000" height="1000" fill="#000000"></rect><g transform="matrix(5,0,0,5,0,0)"><svg xmlns="http://www.w3.org/2000/svg" version="1.1" xmlns:xlink="http://www.w3.org/1999/xlink" width="200" height="200"><svg xmlns="http://www.w3.org/2000/svg" version="1.1" xmlns:xlink="http://www.w3.org/1999/xlink" viewBox="0 0 200 200"><rect width="200" height="200" fill="url('#gradient')"></rect><defs><linearGradient id="gradient" gradientTransform="rotate(148 0.5 0.5)"><stop offset="0%" stop-color="#1b3855"></stop><stop offset="100%" stop-color="#1b3855"></stop></linearGradient><clipPath id="SvgjsClipPath1455"><rect width="1000" height="1000" x="0" y="0" rx="500" ry="500"></rect></clipPath></defs><g><g fill="#f4d58d" transform="matrix(3.785493682732803,0,0,3.785493682732803,16.942906742058014,126.91423545613375)" stroke="#0e5278" stroke-width="0"><path d="M8.94 0L5.91-5.29L4.50-3.75L4.50 0L1.07 0L1.07-14.22L4.50-14.22L4.50-7.95L5.69-9.76L8.76-14.22L13.00-14.22L8.19-7.93L13.00 0L8.94 0ZM19.64 0L13.87 0L13.87-14.22L18.97-14.22Q21.72-14.22 23.15-13.21Q24.58-12.21 24.58-10.29L24.58-10.29Q24.58-9.19 24.07-8.41Q23.56-7.63 22.58-7.26L22.58-7.26Q23.69-6.96 24.29-6.16Q24.88-5.36 24.88-4.21L24.88-4.21Q24.88-2.12 23.56-1.07Q22.24-0.02 19.64 0L19.64 0ZM19.70-6.04L17.29-6.04L17.29-2.64L19.54-2.64Q20.47-2.64 20.97-3.06Q21.46-3.49 21.46-4.26L21.46-4.26Q21.46-6.04 19.70-6.04L19.70-6.04ZM17.29-11.57L17.29-8.29L19.08-8.29Q20.21-8.30 20.68-8.70Q21.16-9.10 21.16-9.88L21.16-9.88Q21.16-10.78 20.64-11.18Q20.13-11.57 18.97-11.57L18.97-11.57L17.29-11.57ZM35.80-14.22L37.78-5.30L39.41-14.22L42.81-14.22L39.79 0L36.24 0L34.34-8.11L32.47 0L28.93 0L25.90-14.22L29.31-14.22L30.94-5.30L32.89-14.22L35.80-14.22Z"></path></g></g></svg></svg></g></g></svg>